{"title":"[ShepardTDS] Please Teacher! Dual Audio [720p 8-bit x265 HEVC] 1","uid":12937540,"size":2179622715,"categoryP":"video","categoryS":"tv_shows","magnet":"?xt=urn:btih:bb2bea92bc25e4f74a697d75e73563dd8ece4105&amp;dn=%5BShepardTDS%5D+Please+Teacher%21+Dual+Audio+%5B720p+8-bit+x265+HEVC%5D+1&amp;tr=udp%3A%2F%2Ftracker.leechers-paradise.org%3A6969&amp;tr=udp%3A%2F%2Fzer0day.ch%3A1337&amp;tr=udp%3A%2F%2Fopen.demonii.com%3A1337&amp;tr=udp%3A%2F%2Ftracker.coppersurfer.tk%3A6969&amp;tr=udp%3A%2F%2Fexodus.desync.com%3A6969","seeders":0,"leechers":1,"uploader":"ShepardTDS","files":17,"time":1449601081,"description":"http://extraimago.com/images/2015/12/08/9164dc7f5a3a01463380c45c363817ba.jpg\r\n\r\nConstant Quality encoding.\r\nVariable Bit rates\r\nThe ratio is 4:3 and the true resolution is 1,280x960\r\n \nhttp://extraimago.com/images/2015/12/08/sample1.jpg\r\n \nhttp://extraimago.com/images/2015/12/08/sample2.jpg\r\n\r\nGeneral\r\n\r\nFormat : Matroska\r\nFile size : 124 MiB-238 MiB\r\nDuration : 22mn 33s\r\nOverall bit rate : 768 Kbps-1,475 Kbps\r\nEncoded date : UTC 2015-12-07 02:10:16\r\nWriting application : mkvmerge v7.7.0 ('Six Voices') 32bit built on Feb 28 2015 23:23:00\r\nWriting library : libebml v1.3.1 + libmatroska v1.4.2\r\n\r\nVideo\r\nID : 1\r\nFormat : V_MPEGH/ISO/HEVC\r\nCodec ID : V_MPEGH/ISO/HEVC\r\nDuration : 22mn 33s\r\nBit rate : 369 Kbps-1,062 Kbps\r\nWidth : 1 280 pixels\r\nHeight : 960 pixels\r\nDisplay aspect ratio : 4:3\r\nFrame rate : 23.976 fps\r\nBits/(Pixel*Frame) : 0.013\r\nStream size : 59.5 MiB (48%)\r\n\r\nAudio #1\r\nID : 2\r\nFormat : AC-3\r\nFormat/Info : Audio Coding 3\r\nMode extension : CM (complete main)\r\nCodec ID : A_AC3\r\nDuration : 22mn 33s\r\nBit rate mode : Constant\r\nBit rate : 192 Kbps\r\nChannel(s) : 2 channels\r\nChannel positions : Front: L R\r\nSampling rate : 48.0 KHz\r\nBit depth : 16 bits\r\nCompression mode : Lossy\r\nStream size : 31.0 MiB (25%)\r\nLanguage : English\r\n\r\nAudio #2\r\nID : 3\r\nFormat : AC-3\r\nFormat/Info : Audio Coding 3\r\nMode extension : CM (complete main)\r\nCodec ID : A_AC3\r\nDuration : 22mn 33s\r\nBit rate mode : Constant\r\nBit rate : 192 Kbps\r\nChannel(s) : 2 channels\r\nChannel positions : Front: L R\r\nSampling rate : 48.0 KHz\r\nBit depth : 16 bits\r\nCompression mode : Lossy\r\nStream size : 31.0 MiB (25%)\r\nLanguage : Japanese\r\n\r\nText\r\nID : 4\r\nFormat : UTF-8\r\nCodec ID : S_TEXT/UTF8\r\nCodec ID/Info : UTF-8 Plain Text\r\nLanguage : English","torrent":{"xt":"urn:btih:bb2bea92bc25e4f74a697d75e73563dd8ece4105","amp;dn":"%5BShepardTDS%5D+Please+Teacher%21+Dual+Audio+%5B720p+8-bit+x265+HEVC%5D+1","amp;tr":["udp%3A%2F%2Ftracker.leechers-paradise.org%3A6969","udp%3A%2F%2Fzer0day.ch%3A1337","udp%3A%2F%2Fopen.demonii.com%3A1337","udp%3A%2F%2Ftracker.coppersurfer.tk%3A6969","udp%3A%2F%2Fexodus.desync.com%3A6969"],"infoHash":"bb2bea92bc25e4f74a697d75e73563dd8ece4105","infoHashBuffer":{"type":"Buffer","data":[187,43,234,146,188,37,228,247,74,105,125,117,231,53,99,221,142,206,65,5]},"announce":[],"urlList":[]}}